#Comment line ignore any data following # character 
#Hierarchical Translation and Rotation (.htr) file 
[Header]	
#Header keywords are followed by a single value 
FileType HTR		#Single word string
DataType HTRS		#Translation followed by rotation and scale data
FileVersion 1		#integer
NumSegments 84		#integer
NumFrames 2		#integer
DataFrameRate 30		#integer, data frame rate in this file
EulerRotationOrder ZYX
CalibrationUnits mm
RotationUnits Degrees
GlobalAxisofGravity Y
BoneLengthAxis Y
ScaleFactor 1.00
[SegmentNames&Hierarchy]
#CHILD	PARENT
MASTER GLOBAL
root MASTER
chest root
L_mid_tent01 root
R_mid_tent01 root
spine01 root
Bip01_Neck chest
L_humerus chest
R_humerus chest
weapon_bone chest
Bip01_Head Bip01_Neck
eye_left_bone Bip01_Head
eye_right_bone Bip01_Head
L_forearm L_humerus
L_front_hand L_forearm
L_weapon_bone L_forearm
L_front_hand01_01 L_front_hand
L_front_hand02_01 L_front_hand
L_front_hand03_01 L_front_hand
L_front_hand01_02 L_front_hand01_01
L_front_hand02_02 L_front_hand02_01
L_front_hand03_02 L_front_hand03_01
R_forearm R_humerus
R_front_hand R_forearm
R_weapon_bone R_forearm
R_front_hand01_01 R_front_hand
R_front_hand02_01 R_front_hand
R_front_hand03_01 R_front_hand
R_front_hand01_02 R_front_hand01_01
R_front_hand02_02 R_front_hand02_01
R_front_hand03_02 R_front_hand03_01
null_rope01_connect L_mid_tent01
Rope1_Seg01 null_rope01_connect
Rope1_Seg02 Rope1_Seg01
Rope1_Seg03 Rope1_Seg02
Rope1_Seg04 Rope1_Seg03
Rope1_Seg05 Rope1_Seg04
Rope1_Seg06 Rope1_Seg05
Rope1_Seg07 Rope1_Seg06
Rope1_Seg09 Rope1_Seg07
L_mid_hand01 Rope1_Seg09
L_mid_hand02 Rope1_Seg09
L_mid_hand03 Rope1_Seg09
null_rope02_connect R_mid_tent01
Rope2_Seg01 null_rope02_connect
Rope2_Seg02 Rope2_Seg01
Rope2_Seg03 Rope2_Seg02
Rope2_Seg04 Rope2_Seg03
Rope2_Seg05 Rope2_Seg04
Rope2_Seg06 Rope2_Seg05
Rope2_Seg07 Rope2_Seg06
Rope2_Seg09 Rope2_Seg07
R_mid_hand01 Rope2_Seg09
R_mid_hand02 Rope2_Seg09
R_mid_hand03 Rope2_Seg09
spine02 spine01
spine03 spine02
pelvis spine03
null_rope03_connect pelvis
null_rope04_connect pelvis
Rope3_Seg01 null_rope03_connect
Rope3_Seg02 Rope3_Seg01
Rope3_Seg03 Rope3_Seg02
Rope3_Seg04 Rope3_Seg03
Rope3_Seg05 Rope3_Seg04
Rope3_Seg06 Rope3_Seg05
Rope3_Seg07 Rope3_Seg06
Rope3_Seg08 Rope3_Seg07
Rope3_Seg09 Rope3_Seg08
R_rear_hand01 Rope3_Seg09
R_rear_hand02 Rope3_Seg09
R_rear_hand03 Rope3_Seg09
Rope4_Seg01 null_rope04_connect
Rope4_Seg02 Rope4_Seg01
Rope4_Seg03 Rope4_Seg02
Rope4_Seg04 Rope4_Seg03
Rope4_Seg05 Rope4_Seg04
Rope4_Seg06 Rope4_Seg05
Rope4_Seg07 Rope4_Seg06
Rope4_Seg08 Rope4_Seg07
Rope4_Seg09 Rope4_Seg08
L_rear_hand01 Rope4_Seg09
L_rear_hand02 Rope4_Seg09
L_rear_hand03 Rope4_Seg09
[BasePosition]
#SegmentName Tx, Ty, Tz, Rx, Ry, Rz, BoneLength
MASTER 0.000000 0.000000 0.000000 -90.000000 0.000000 0.000000 10.000000 
root 0.000000 0.000000 0.000000 0.000000 0.000000 0.000000 10.000000 
chest 0.000000 0.000000 0.000000 0.000000 0.000000 0.000000 10.000000 
L_mid_tent01 0.000000 0.000000 0.000000 0.000000 0.000000 0.000000 10.000000 
R_mid_tent01 0.000000 0.000000 0.000000 0.000000 0.000000 0.000000 10.000000 
spine01 0.000000 0.000000 0.000000 0.000000 0.000000 0.000000 10.000000 
Bip01_Neck 0.000000 0.000000 0.000000 0.000000 0.000000 0.000000 10.000000 
L_humerus 0.000000 0.000000 0.000000 0.000000 0.000000 0.000000 10.000000 
R_humerus 0.000000 0.000000 0.000000 0.000000 0.000000 0.000000 10.000000 
weapon_bone 0.000000 0.000000 0.000000 0.000000 0.000000 0.000000 10.000000 
Bip01_Head 0.000000 0.000000 0.000000 0.000000 0.000000 0.000000 10.000000 
eye_left_bone 0.000000 0.000000 0.000000 0.000000 0.000000 0.000000 10.000000 
eye_right_bone 0.000000 0.000000 0.000000 0.000000 0.000000 0.000000 10.000000 
L_forearm 0.000000 0.000000 0.000000 0.000000 0.000000 0.000000 10.000000 
L_front_hand 0.000000 0.000000 0.000000 0.000000 0.000000 0.000000 10.000000 
L_weapon_bone 0.000000 0.000000 0.000000 0.000000 0.000000 0.000000 10.000000 
L_front_hand01_01 0.000000 0.000000 0.000000 0.000000 0.000000 0.000000 10.000000 
L_front_hand02_01 0.000000 0.000000 0.000000 0.000000 0.000000 0.000000 10.000000 
L_front_hand03_01 0.000000 0.000000 0.000000 0.000000 0.000000 0.000000 10.000000 
L_front_hand01_02 0.000000 0.000000 0.000000 0.000000 0.000000 0.000000 10.000000 
L_front_hand02_02 0.000000 0.000000 0.000000 0.000000 0.000000 0.000000 10.000000 
L_front_hand03_02 0.000000 0.000000 0.000000 0.000000 0.000000 0.000000 10.000000 
R_forearm 0.000000 0.000000 0.000000 0.000000 0.000000 0.000000 10.000000 
R_front_hand 0.000000 0.000000 0.000000 0.000000 0.000000 0.000000 10.000000 
R_weapon_bone 0.000000 0.000000 0.000000 0.000000 0.000000 0.000000 10.000000 
R_front_hand01_01 0.000000 0.000000 0.000000 0.000000 0.000000 0.000000 10.000000 
R_front_hand02_01 0.000000 0.000000 0.000000 0.000000 0.000000 0.000000 10.000000 
R_front_hand03_01 0.000000 0.000000 0.000000 0.000000 0.000000 0.000000 10.000000 
R_front_hand01_02 0.000000 0.000000 0.000000 0.000000 0.000000 0.000000 10.000000 
R_front_hand02_02 0.000000 0.000000 0.000000 0.000000 0.000000 0.000000 10.000000 
R_front_hand03_02 0.000000 0.000000 0.000000 0.000000 0.000000 0.000000 10.000000 
null_rope01_connect 0.000000 0.000000 0.000000 0.000000 0.000000 0.000000 10.000000 
Rope1_Seg01 0.000000 0.000000 0.000000 0.000000 0.000000 0.000000 10.000000 
Rope1_Seg02 0.000000 0.000000 0.000000 0.000000 0.000000 0.000000 10.000000 
Rope1_Seg03 0.000000 0.000000 0.000000 0.000000 0.000000 0.000000 10.000000 
Rope1_Seg04 0.000000 0.000000 0.000000 0.000000 0.000000 0.000000 10.000000 
Rope1_Seg05 0.000000 0.000000 0.000000 0.000000 0.000000 0.000000 10.000000 
Rope1_Seg06 0.000000 0.000000 0.000000 0.000000 0.000000 0.000000 10.000000 
Rope1_Seg07 0.000000 0.000000 0.000000 0.000000 0.000000 0.000000 10.000000 
Rope1_Seg09 0.000000 0.000000 0.000000 0.000000 0.000000 0.000000 10.000000 
L_mid_hand01 0.000000 0.000000 0.000000 0.000000 0.000000 0.000000 10.000000 
L_mid_hand02 0.000000 0.000000 0.000000 0.000000 0.000000 0.000000 10.000000 
L_mid_hand03 0.000000 0.000000 0.000000 0.000000 0.000000 0.000000 10.000000 
null_rope02_connect 0.000000 0.000000 0.000000 0.000000 0.000000 0.000000 10.000000 
Rope2_Seg01 0.000000 0.000000 0.000000 0.000000 0.000000 0.000000 10.000000 
Rope2_Seg02 0.000000 0.000000 0.000000 0.000000 0.000000 0.000000 10.000000 
Rope2_Seg03 0.000000 0.000000 0.000000 0.000000 0.000000 0.000000 10.000000 
Rope2_Seg04 0.000000 0.000000 0.000000 0.000000 0.000000 0.000000 10.000000 
Rope2_Seg05 0.000000 0.000000 0.000000 0.000000 0.000000 0.000000 10.000000 
Rope2_Seg06 0.000000 0.000000 0.000000 0.000000 0.000000 0.000000 10.000000 
Rope2_Seg07 0.000000 0.000000 0.000000 0.000000 0.000000 0.000000 10.000000 
Rope2_Seg09 0.000000 0.000000 0.000000 0.000000 0.000000 0.000000 10.000000 
R_mid_hand01 0.000000 0.000000 0.000000 0.000000 0.000000 0.000000 10.000000 
R_mid_hand02 0.000000 0.000000 0.000000 0.000000 0.000000 0.000000 10.000000 
R_mid_hand03 0.000000 0.000000 0.000000 0.000000 0.000000 0.000000 10.000000 
spine02 0.000000 0.000000 0.000000 0.000000 0.000000 0.000000 10.000000 
spine03 0.000000 0.000000 0.000000 0.000000 0.000000 0.000000 10.000000 
pelvis 0.000000 0.000000 0.000000 0.000000 0.000000 0.000000 10.000000 
null_rope03_connect 0.000000 0.000000 0.000000 0.000000 0.000000 0.000000 10.000000 
null_rope04_connect 0.000000 0.000000 0.000000 0.000000 0.000000 0.000000 10.000000 
Rope3_Seg01 0.000000 0.000000 0.000000 0.000000 0.000000 0.000000 10.000000 
Rope3_Seg02 0.000000 0.000000 0.000000 0.000000 0.000000 0.000000 10.000000 
Rope3_Seg03 0.000000 0.000000 0.000000 0.000000 0.000000 0.000000 10.000000 
Rope3_Seg04 0.000000 0.000000 0.000000 0.000000 0.000000 0.000000 10.000000 
Rope3_Seg05 0.000000 0.000000 0.000000 0.000000 0.000000 0.000000 10.000000 
Rope3_Seg06 0.000000 0.000000 0.000000 0.000000 0.000000 0.000000 10.000000 
Rope3_Seg07 0.000000 0.000000 0.000000 0.000000 0.000000 0.000000 10.000000 
Rope3_Seg08 0.000000 0.000000 0.000000 0.000000 0.000000 0.000000 10.000000 
Rope3_Seg09 0.000000 0.000000 0.000000 0.000000 0.000000 0.000000 10.000000 
R_rear_hand01 0.000000 0.000000 0.000000 0.000000 0.000000 0.000000 10.000000 
R_rear_hand02 0.000000 0.000000 0.000000 0.000000 0.000000 0.000000 10.000000 
R_rear_hand03 0.000000 0.000000 0.000000 0.000000 0.000000 0.000000 10.000000 
Rope4_Seg01 0.000000 0.000000 0.000000 0.000000 0.000000 0.000000 10.000000 
Rope4_Seg02 0.000000 0.000000 0.000000 0.000000 0.000000 0.000000 10.000000 
Rope4_Seg03 0.000000 0.000000 0.000000 0.000000 0.000000 0.000000 10.000000 
Rope4_Seg04 0.000000 0.000000 0.000000 0.000000 0.000000 0.000000 10.000000 
Rope4_Seg05 0.000000 0.000000 0.000000 0.000000 0.000000 0.000000 10.000000 
Rope4_Seg06 0.000000 0.000000 0.000000 0.000000 0.000000 0.000000 10.000000 
Rope4_Seg07 0.000000 0.000000 0.000000 0.000000 0.000000 0.000000 10.000000 
Rope4_Seg08 0.000000 0.000000 0.000000 0.000000 0.000000 0.000000 10.000000 
Rope4_Seg09 0.000000 0.000000 0.000000 0.000000 0.000000 0.000000 10.000000 
L_rear_hand01 0.000000 0.000000 0.000000 0.000000 0.000000 0.000000 10.000000 
L_rear_hand02 0.000000 0.000000 0.000000 0.000000 0.000000 0.000000 10.000000 
L_rear_hand03 0.000000 0.000000 0.000000 0.000000 0.000000 0.000000 10.000000 
#Beginning of Data. Separated by tabs
#Fr	Tx	Ty	Tz	Rx	Ry	Rz	SF
[MASTER]
36 -0.000682 4247.270508 5099.114746 0.001660 0.001660 0.001660 6636.285156
37 -0.000694 4313.008301 5121.854004 0.001660 0.001660 0.001660 6695.926270
[root]
36 -104.534843 -128.775269 572.900940 -95.711006 -13.049572 -90.671150 596.427795
37 -136.085785 -162.729691 568.950745 -93.244865 -11.700789 -90.665611 607.211060
[chest]
36 -84.512650 -34.090519 0.000000 -4.797246 4.735722 151.798004 91.129311
37 -84.512650 -34.090519 0.000000 -3.533194 5.023994 153.968460 91.129311
[L_mid_tent01]
36 27.299145 22.179399 -249.918701 -0.538582 33.930733 67.956482 252.381714
37 27.299147 22.179405 -249.918701 -0.419532 34.828438 68.021896 252.381714
[R_mid_tent01]
36 23.228794 24.509907 226.238495 162.740479 -25.512390 80.339081 228.744751
37 23.228794 24.509907 226.238495 161.779434 -25.639521 82.632614 228.744751
[spine01]
36 -0.361383 -0.195265 0.000000 0.001953 0.001302 22.609129 0.410763
37 -0.361383 -0.195265 0.000000 0.001952 0.001303 22.570730 0.410763
[Bip01_Neck]
36 165.484543 71.581718 0.000119 176.643677 -1.657967 43.431911 180.302734
37 165.484543 71.581718 0.000119 176.643677 -1.657967 43.431911 180.302734
[L_humerus]
36 -13.983130 -135.272980 -120.471481 172.179993 1.425441 -89.778114 181.680161
37 -13.983130 -135.272980 -120.471481 172.161057 -4.368067 -88.981163 181.680161
[R_humerus]
36 -13.983309 -135.273102 125.287651 -177.014343 2.678918 -85.399712 184.909012
37 -13.983309 -135.273102 125.287651 -176.995346 6.892454 -85.181862 184.909012
[weapon_bone]
36 235.964890 -300.705902 0.000000 0.000000 -89.951546 -128.212341 382.234833
37 235.964890 -300.705902 0.000000 0.000000 -89.951546 -128.212341 382.234833
[Bip01_Head]
36 213.334351 186.021729 7.827942 5.200446 6.151311 -43.834991 283.155273
37 213.344833 185.992630 8.202309 5.200446 6.151311 -43.834991 283.154633
[eye_left_bone]
36 -24.626970 125.451866 -64.772606 0.000000 -90.000000 -99.840431 143.318359
37 -24.626970 125.451866 -64.772606 0.000000 -90.000000 -99.840431 143.318359
[eye_right_bone]
36 -24.626970 125.451866 64.327362 0.000000 -89.965736 80.156380 143.117676
37 -24.626970 125.451866 64.327362 0.000000 -89.965736 80.156380 143.117676
[L_forearm]
36 322.776093 0.000000 -0.000119 0.000243 -0.002335 -101.877045 322.776093
37 322.776093 0.000000 -0.000119 0.000251 -0.002334 -102.276527 322.776093
[L_front_hand]
36 241.149185 -0.042021 -3.300071 -176.686844 -1.836508 -27.423176 241.171753
37 241.149185 -0.042021 -3.300071 -177.242523 -1.834378 -27.420803 241.171753
[L_weapon_bone]
36 156.183838 0.000000 0.000000 0.000014 0.000007 0.000001 156.183838
37 156.183838 0.000000 0.000000 0.000014 0.000007 0.000001 156.183838
[L_front_hand01_01]
36 86.095154 20.947098 -0.655860 0.369276 -0.471859 -0.395481 88.609184
37 86.095154 20.947098 -0.655860 0.328012 -0.501522 4.596091 88.609184
[L_front_hand02_01]
36 86.935165 -11.437475 24.513514 116.901077 -0.137207 -0.418754 91.046425
37 86.935165 -11.437475 24.513514 116.996811 -4.588247 -2.683244 91.046425
[L_front_hand03_01]
36 86.637497 -14.123976 -20.424902 -118.323837 -0.941009 -2.161297 90.126129
37 86.637497 -14.123976 -20.424902 -118.373535 3.451340 -4.532540 90.126129
[L_front_hand01_02]
36 71.020905 -0.000179 0.000030 0.001238 0.001994 -26.317692 71.020905
37 71.020905 -0.000179 0.000030 0.000966 0.002139 -41.403496 71.020905
[L_front_hand02_02]
36 71.020927 -0.000119 0.000060 0.001238 0.001994 -26.317692 71.020927
37 71.020927 -0.000119 0.000060 0.000966 0.002139 -41.403496 71.020927
[L_front_hand03_02]
36 71.020905 -0.000060 0.000060 0.001238 0.001994 -26.317692 71.020905
37 71.020905 -0.000060 0.000060 0.000966 0.002139 -41.403496 71.020905
[R_forearm]
36 322.776428 -0.000060 0.000030 0.209158 0.036121 -100.469444 322.776428
37 322.776428 -0.000060 0.000030 0.208077 0.037628 -100.863564 322.776428
[R_front_hand]
36 238.847015 -0.006795 2.210259 8.695828 -10.643461 -26.314991 238.857239
37 238.847015 -0.006795 2.210259 5.536032 -10.643235 -26.312044 238.857239
[R_weapon_bone]
36 155.664093 0.002503 -0.000030 0.003487 0.001180 -90.988930 155.664078
37 155.664093 0.002503 -0.000030 0.003487 0.001180 -90.988930 155.664078
[R_front_hand01_01]
36 87.624611 14.231146 22.918642 -116.916649 -1.486293 1.208012 91.683487
37 87.624611 14.231146 22.918642 -117.121574 -6.969733 4.014818 91.683487
[R_front_hand02_01]
36 89.356956 14.367283 -19.491137 118.336418 0.664824 3.268977 92.579636
37 89.356956 14.367283 -19.491137 118.508331 6.078472 6.199164 92.579636
[R_front_hand03_01]
36 87.286232 -22.307278 -0.143439 -0.366099 -0.269765 -1.357629 90.091743
37 87.286232 -22.307278 -0.143439 -0.334995 -0.307790 -7.510459 90.091743
[R_front_hand01_02]
36 71.020905 0.000060 0.000119 0.002048 0.001147 31.490175 71.020905
37 71.020905 0.000060 0.000119 0.002212 0.000785 50.925510 71.020905
[R_front_hand02_02]
36 71.020844 -0.000030 -0.000119 0.002048 0.001147 31.490175 71.020836
37 71.020844 -0.000030 -0.000119 0.002212 0.000785 50.925510 71.020836
[R_front_hand03_02]
36 71.020905 0.000000 0.000030 0.002048 0.001147 31.490175 71.020905
37 71.020905 0.000000 0.000030 0.002212 0.000785 50.925510 71.020905
[null_rope01_connect]
36 328.732483 0.000000 -0.000238 -147.784576 -50.336666 -176.855194 328.732483
37 328.732483 0.000000 -0.000238 -147.874207 -51.780258 -178.400360 328.732483
[Rope1_Seg01]
36 -0.000026 0.000014 0.000055 114.467415 -19.514475 151.942947 0.000063
37 -0.000026 0.000013 0.000053 115.653984 -22.628883 149.386810 0.000060
[Rope1_Seg02]
36 139.999863 -0.000179 0.000000 -0.277029 -9.101898 -11.934973 139.999863
37 139.999863 -0.000179 0.000000 -1.026204 -8.857929 -13.168605 139.999863
[Rope1_Seg03]
36 139.999924 0.000060 -0.000060 1.021584 -12.787498 -15.151144 139.999924
37 139.999924 0.000060 -0.000060 0.677495 -12.480554 -17.140850 139.999924
[Rope1_Seg04]
36 139.999924 -0.000060 -0.000119 2.416497 -11.721554 -17.366615 139.999924
37 139.999924 -0.000060 -0.000119 2.463647 -10.610600 -18.442270 139.999924
[Rope1_Seg05]
36 139.999832 0.000119 -0.000060 10.781011 -11.802380 -34.386169 139.999832
37 139.999832 0.000119 -0.000060 14.156078 -10.682036 -40.070679 139.999832
[Rope1_Seg06]
36 139.999954 0.000119 -0.000060 10.983021 -10.502624 -20.027168 139.999954
37 139.999954 0.000119 -0.000060 15.205919 -11.158894 -22.518927 139.999954
[Rope1_Seg07]
36 139.999985 0.000060 0.000000 5.297016 -6.184649 -7.831539 139.999985
37 139.999985 0.000060 0.000000 6.365860 -6.431474 -7.375762 139.999985
[Rope1_Seg09]
36 121.602913 0.000119 -0.000089 -89.793175 -1.359789 0.847147 121.602913
37 121.602913 0.000119 -0.000089 -89.793175 -1.359789 0.847147 121.602913
[L_mid_hand01]
36 103.859421 1.038730 8.195221 130.544373 -67.584534 -38.866943 104.187431
37 103.859421 1.038730 8.195221 130.544373 -67.584534 -38.866947 104.187431
[L_mid_hand02]
36 105.572853 -4.139662 -10.864139 -168.923172 43.409321 -73.498909 106.211075
37 105.572853 -4.139662 -10.864139 -168.923172 43.409309 -73.498886 106.211075
[L_mid_hand03]
36 104.641464 17.579376 -3.913581 -6.012629 17.808178 74.893669 106.179977
37 104.641464 17.579376 -3.913581 -6.012628 17.808178 74.893669 106.179977
[null_rope02_connect]
36 328.732849 0.000179 -0.000119 -114.056084 63.867714 40.333881 328.732849
37 328.732849 0.000179 -0.000119 -120.182549 61.711281 37.116814 328.732849
[Rope2_Seg01]
36 0.000062 0.000055 0.000000 -36.242809 -26.418756 20.682512 0.000084
37 0.000063 0.000053 0.000000 -38.139809 -24.680464 23.585615 0.000082
[Rope2_Seg02]
36 139.999741 -0.000060 -0.000119 -0.996091 -0.178127 4.940724 139.999756
37 139.999741 -0.000060 -0.000119 -0.949826 0.784939 4.908013 139.999756
[Rope2_Seg03]
36 140.000107 0.000030 0.000000 -1.635636 -0.658481 11.525562 140.000107
37 140.000107 0.000030 0.000000 -1.539916 1.153801 10.661047 140.000107
[Rope2_Seg04]
36 139.999802 0.000000 -0.000060 1.415627 -16.059113 51.298359 139.999802
37 139.999802 0.000000 -0.000060 -0.315549 -7.159749 37.714096 139.999802
[Rope2_Seg05]
36 139.999985 -0.000060 0.000119 42.804008 62.672436 63.612427 139.999985
37 139.999985 -0.000060 0.000119 26.521152 64.387375 60.960464 139.999985
[Rope2_Seg06]
36 139.999893 -0.000030 -0.000119 -14.948960 29.637461 4.986830 139.999893
37 139.999893 -0.000030 -0.000119 -17.816919 21.337765 12.598161 139.999893
[Rope2_Seg07]
36 139.999893 0.000060 -0.000060 -6.166897 4.479689 3.270081 139.999893
37 139.999893 0.000060 -0.000060 -6.028453 2.999462 4.680458 139.999893
[Rope2_Seg09]
36 121.338966 0.000089 -0.000060 33.793236 -1.359788 -0.847141 121.338966
37 121.338966 0.000089 -0.000060 33.793236 -1.359788 -0.847141 121.338966
[R_mid_hand01]
36 104.680779 11.144459 -10.335981 -16.212063 45.237247 70.462852 105.778534
37 104.680779 11.144459 -10.335981 -16.212063 45.237247 70.462852 105.778534
[R_mid_hand02]
36 104.070427 2.443552 8.231699 49.067368 -67.749771 39.286453 104.424065
37 104.070427 2.443552 8.231699 49.067368 -67.749771 39.286453 104.424065
[R_mid_hand03]
36 106.028137 -11.221827 -5.996406 -177.101105 15.551026 -76.585571 106.788818
37 106.028137 -11.221827 -5.996406 -177.101105 15.551026 -76.585571 106.788818
[spine02]
36 129.756927 0.001550 0.000119 -0.412353 -4.040427 -2.014222 129.756927
37 129.756927 0.001550 0.000119 -0.372333 -4.044507 -2.586138 129.756927
[spine03]
36 78.613953 0.081399 -4.898987 1.428913 4.028303 9.688531 78.766495
37 78.613953 0.081388 -4.898987 1.454049 4.019791 10.046068 78.766495
[pelvis]
36 169.435242 0.051022 0.000000 -0.017056 -0.191181 0.349556 169.435257
37 169.435242 0.051022 0.000000 -0.019889 -0.191049 1.060091 169.435257
[null_rope03_connect]
36 -1.257226 -2.466202 137.391083 -159.202087 -84.411346 -128.342346 137.418976
37 -1.257226 -2.466202 137.391083 -154.171356 -86.884171 -135.174957 137.418976
[null_rope04_connect]
36 -1.259640 -2.480268 -137.844437 -159.202087 -84.411346 -128.342346 137.872513
37 -1.259640 -2.480268 -137.844437 -154.171356 -86.884171 -135.174957 137.872513
[Rope3_Seg01]
36 0.000000 0.000000 0.000000 -140.354828 -16.544287 -34.175865 0.000000
37 0.000000 0.000000 0.000000 -143.060669 -18.735479 -32.278206 0.000000
[Rope3_Seg02]
36 139.999924 -0.000119 0.000060 8.320182 -6.020348 7.922893 139.999924
37 139.999924 -0.000119 0.000060 11.279634 -8.178684 10.115468 139.999924
[Rope3_Seg03]
36 139.999924 -0.000119 0.000119 9.362803 -7.485530 14.975811 139.999924
37 139.999924 -0.000119 0.000119 10.183690 -7.999595 17.315155 139.999924
[Rope3_Seg04]
36 139.999924 0.000119 0.000000 5.983700 -5.493091 28.152596 139.999924
37 139.999924 0.000119 0.000000 5.360869 -4.431245 22.471312 139.999924
[Rope3_Seg05]
36 139.999924 -0.000238 0.000060 1.640202 -10.565258 7.789121 139.999924
37 139.999924 -0.000238 0.000060 1.769771 -7.070364 9.592319 139.999924
[Rope3_Seg06]
36 139.999893 -0.000119 -0.000060 1.531848 -6.827647 -0.401856 139.999893
37 139.999893 -0.000119 -0.000060 1.268212 -5.241703 3.276242 139.999893
[Rope3_Seg07]
36 139.999771 0.000060 -0.000119 1.299815 -3.085699 1.772685 139.999771
37 139.999771 0.000060 -0.000119 1.018892 -2.457630 3.334374 139.999771
[Rope3_Seg08]
36 139.999985 -0.000060 0.000000 1.013914 -1.773669 1.074210 139.999985
37 139.999985 -0.000060 0.000000 0.812226 -1.437382 2.029422 139.999985
[Rope3_Seg09]
36 90.185997 -0.000179 -0.000060 89.793228 -1.359877 -0.847183 90.185997
37 90.185997 -0.000179 -0.000060 89.793228 -1.359877 -0.847183 90.185997
[R_rear_hand01]
36 103.366196 -6.073594 -10.757982 -177.714203 24.565960 -73.910950 104.101845
37 103.366196 -6.073594 -10.757982 -177.714203 24.565960 -73.910950 104.101845
[R_rear_hand02]
36 100.509819 12.039542 -7.992327 -12.874829 36.868488 72.167213 101.543350
37 100.509819 12.039542 -7.992327 -12.874829 36.868488 72.167213 101.543350
[R_rear_hand03]
36 101.539970 5.215704 5.435467 71.484581 -71.816628 21.513813 101.819031
37 101.539970 5.215704 5.435467 71.484581 -71.816628 21.513813 101.819031
[Rope4_Seg01]
36 0.000010 0.000014 -0.000055 57.439392 -28.480661 -117.359756 0.000058
37 0.000010 0.000013 -0.000053 54.874405 -23.953720 -114.790977 0.000055
[Rope4_Seg02]
36 139.999985 0.000060 0.000119 -8.071983 2.706989 -18.457565 139.999985
37 139.999985 0.000060 0.000119 -7.372715 2.111176 -19.523457 139.999985
[Rope4_Seg03]
36 139.999924 0.000000 -0.000238 -14.835773 7.072011 -26.485365 139.999924
37 139.999924 0.000000 -0.000238 -13.049280 5.315107 -25.493612 139.999924
[Rope4_Seg04]
36 139.999985 0.000000 0.000119 -11.553200 8.721279 -19.620327 139.999985
37 139.999985 0.000000 0.000119 -10.775856 5.113799 -19.095331 139.999985
[Rope4_Seg05]
36 139.999802 -0.000060 -0.000119 -5.372358 8.631070 -9.260782 139.999802
37 139.999802 -0.000060 -0.000119 -5.269015 7.126379 -8.026165 139.999802
[Rope4_Seg06]
36 139.999924 0.000000 0.000060 -5.432605 16.371510 -10.706900 139.999924
37 139.999924 0.000000 0.000060 -4.687836 15.349284 -6.706496 139.999924
[Rope4_Seg07]
36 139.999802 0.000000 0.000000 -2.643016 23.761583 -13.335242 139.999802
37 139.999802 0.000000 0.000000 -2.318172 29.130737 -8.990015 139.999802
[Rope4_Seg08]
36 139.999924 0.000000 0.000119 0.448391 12.629556 -7.397913 139.999924
37 139.999924 0.000000 0.000119 1.717365 16.582670 -6.219474 139.999924
[Rope4_Seg09]
36 90.185791 0.000060 0.000060 -135.617828 2.228885 0.850567 90.185791
37 90.185791 0.000060 0.000060 -135.617828 2.228885 0.850567 90.185791
[L_rear_hand01]
36 101.696655 -8.392275 -7.654577 -12.874829 -36.868488 107.832764 102.329041
37 101.696655 -8.392275 -7.654577 -12.874829 -36.868488 107.832764 102.329041
[L_rear_hand02]
36 102.726799 -1.568258 5.773216 71.484581 71.816643 158.486160 102.900848
37 102.726799 -1.568258 5.773216 71.484581 71.816628 158.486160 102.900848
[L_rear_hand03]
36 104.552910 9.721220 -10.420293 -177.714203 -24.565960 -106.089035 105.519653
37 104.552910 9.721220 -10.420293 -177.714203 -24.565960 -106.089035 105.519653
